<?xml version="1.0" encoding="utf-8"?>
<!-- Generator: Adobe Illustrator 19.2.1, SVG Export Plug-In . SVG Version: 6.00 Build 0)  -->
<svg version="1.1" xmlns="http://www.w3.org/2000/svg" xmlns:xlink="http://www.w3.org/1999/xlink" x="0px" y="0px"
	 viewBox="0 0 1280 720" style="enable-background:new 0 0 1280 720;" xml:space="preserve">
<style type="text/css">
	.st0{fill:#CFE6CF;}
	.st1{fill:#11575E;}
	.st2{fill:#0B3B3D;}
</style>
<g id="Layer_1">
	<rect class="st0" width="1280" height="656"/>
</g>
<g id="Layer_4">
	<path class="st1" d="M1258.1,541.8l-1.8-12.2l-0.2-1.2l7.9,1.5l9.4,0.6l-0.8-1.2l0.8,0l-9.2-14.7l6.8,1.3l-0.8-1.3l0.8,0.2
		l-8.3-13.2l5.9,0.4l-0.8-1.2l0.8,0l-18.7-30l-18.7,30l0.8-0.2l-0.8,1.3l6.4-1.2l-8.8,14.1l0.8,0l-0.8,1.2l6.2-0.4l-8.7,13.8
		l0.8-0.2l-0.8,1.3l9.4-1.8l6.7,1.7l-0.2,1.1l-1.3,8.6c-58.6-5.8-163-16.6-167.3-19.2c-6.1-3.7-20.7-18.3-30.5-29.3
		c-3.7-4.1-14.2-6.3-25.9-7.3c-7.2-0.6-14.4-0.8-21.5-0.5l-1.4-9.6l-0.2-1.2l7.9,1.5l9.4,0.6l-0.8-1.2l0.8,0l-9.2-14.7l6.8,1.3
		l-0.8-1.3l0.8,0.2l-8.3-13.2l5.9,0.4l-0.8-1.2l0.8,0l-18.7-30l-18.7,30l0.8-0.2l-0.8,1.3l6.4-1.2l-8.8,14.1l0.8,0l-0.8,1.2l6.2-0.4
		l-8.7,13.8l0.8-0.2l-0.8,1.3l9.4-1.8l6.7,1.7l-0.2,1.1l-1.4,9.2c-10.3,1.4-20.4,3.8-30.3,7l-35.9,11.6l-14.4,4.6
		c-8.8,2.8-17.9,5-27,6.6l-1.6-10.6l-0.2-1.2l7.9,1.5l9.4,0.6l-0.8-1.2l0.8,0l-9.2-14.7l6.8,1.3l-0.8-1.3l0.8,0.2l-8.3-13.2l5.9,0.4
		l-0.8-1.2l0.8,0l-18.7-30l-18.7,30l0.8-0.2l-0.8,1.3l6.4-1.2l-8.8,14.1l0.8,0l-0.8,1.2l6.2-0.4l-8.7,13.8l0.8-0.2l-0.8,1.3l9.4-1.8
		l6.7,1.7l-0.2,1.1l-1.6,11c-13.3,1.2-26.8,1-40.2-0.5l-1.9-12.4l-0.2-1.2l7.9,1.5l9.4,0.6l-0.8-1.2l0.8,0l-9.2-14.7l6.8,1.3
		l-0.8-1.3l0.8,0.2l-8.3-13.2l5.9,0.4l-0.8-1.2l0.8,0l-18.7-30l-18.7,30l0.8-0.2l-0.8,1.3l6.4-1.2l-8.8,14.1l0.8,0l-0.8,1.2l6.2-0.4
		l-8.7,13.8l0.8-0.2l-0.8,1.3l9.4-1.8l6.7,1.7l-0.2,1.1l-1.2,8.3c-4.4-0.7-7.5-1.5-8.4-2.2c-4.9-3.7-47.6-35.4-51.2-39
		c-3.4-3.4-41-42-53.8-50l-2.1-13.7l-0.2-1.2l7.9,1.5l9.4,0.6l-0.8-1.2l0.8,0l-9.2-14.7l6.8,1.3l-0.8-1.3l0.8,0.2l-8.3-13.2l5.9,0.4
		l-0.8-1.2l0.8,0l-18.7-30l-18.7,30l0.8-0.2l-0.8,1.3l6.4-1.2l-8.8,14.1l0.8,0l-0.8,1.2l6.2-0.4l-8.7,13.8l0.8-0.2l-0.8,1.3l9.4-1.8
		l6.7,1.7l-0.2,1.1l-1,6.5c-11.6-2.9-27.5-6.6-40.1-9.5c-5.7-1.3-11.5-2-17.3-2l-1.2-8l-0.2-1.2l7.9,1.5l9.4,0.6l-0.8-1.2l0.8,0
		l-9.2-14.7l6.8,1.3l-0.8-1.3l0.8,0.2l-8.3-13.2l5.9,0.4l-0.8-1.2l0.8,0l-18.7-30l-18.7,30l0.8-0.2l-0.8,1.3l6.4-1.2l-8.8,14.1
		l0.8,0l-0.8,1.2l6.2-0.4l-8.7,13.8l0.8-0.2l-0.8,1.3l9.4-1.8l6.7,1.7l-0.2,1.1l-1.2,7.7c-2.5,0.5-4.9,1.1-7.3,1.8
		c-8.4,2.5-16.3,6.3-23.5,11.4l-39.8,27.9c-4.5,3.1-8.7,6.6-12.7,10.4l-4.5,4.2c-13.9,13.2-31,22.6-49.5,27.4l-21.7,5.6
		c-8.6,2.2-17.4,3.1-26.3,2.6l-1.5-9.8l-0.2-1.2l7.9,1.5l9.4,0.6l-0.8-1.2l0.8,0l-9.2-14.7l6.8,1.3l-0.8-1.3l0.8,0.2l-8.3-13.2
		l5.9,0.4l-0.8-1.2l0.8,0l-18.7-30l-18.7,30l0.8-0.2l-0.8,1.3l6.4-1.2l-8.8,14.1l0.8,0l-0.8,1.2l6.2-0.4l-8.7,13.8l0.8-0.2l-0.8,1.3
		l9.4-1.8l6.7,1.7l-0.2,1.1l-0.8,5.5c-20.1-4.8-38-16.6-50.5-33.5c-2.7-3.6-4.8-6-5.7-6c-1.1,0-7-2.5-14.6-5.9
		c-7.3-3.3-14.8-5.8-22.5-7.4l-1.4-9.3l-0.2-1.2l7.9,1.5l9.4,0.6l-0.8-1.2l0.8,0l-9.2-14.7l6.8,1.3l-0.8-1.3l0.8,0.2l-8.3-13.2
		l5.9,0.4l-0.8-1.2l0.8,0l-18.7-30l-18.7,30l0.8-0.2l-0.8,1.3l6.4-1.2l-8.8,14.1l0.8,0l-0.8,1.2l6.2-0.4l-8.7,13.8l0.8-0.2l-0.8,1.3
		l9.4-1.8l6.7,1.7l-0.2,1.1l-0.8,5.2c-17.5-1.1-35.2,1.9-51.6,9.1l-0.4,0.2c-9.5,4.2-18.5,9.2-27,15.1l-16.3,11.3
		c-1.5,1-3.1,2-4.6,3l-8.4-13.5l6.8,1.3l-0.8-1.3l0.8,0.2l-8.3-13.2l5.9,0.4l-0.8-1.2l0.8,0l-18.7-30l-18.7,30l0.8-0.2l-0.8,1.3
		l6.4-1.2l-8.8,14.1l0.8,0l-0.8,1.2l6.2-0.4l-8.7,13.8l0.8-0.2L135,483l9.4-1.8l6.7,1.7l-0.2,1.1l-1.4,9.1
		c-6.8,1.4-13.7,2.2-20.6,2.2h0c-14.7,0-28.4,7.5-36.3,20h0C86,525.9,75,533,62.6,534.8l-4,0.6l-1.4-9.4l-0.2-1.2l7.9,1.5l9.4,0.6
		l-0.8-1.2l0.8,0l-9.2-14.7l6.8,1.3l-0.8-1.3l0.8,0.2l-8.3-13.2l5.9,0.4l-0.8-1.2l0.8,0l-18.7-30l-18.7,30l0.8-0.2l-0.8,1.3l6.4-1.2
		L29.7,511l0.8,0l-0.8,1.2l6.2-0.4l-8.7,13.8l0.8-0.2l-0.8,1.3l9.4-1.8l6.7,1.7l-0.2,1.1l-1.5,10L0,544v64l5.3,58.1H1280V544
		C1280,544,1271.5,543.2,1258.1,541.8z M164.9,482.2l-0.2-1.2l7.9,1.5l5,0.3c-3.8,2.1-7.7,4-11.8,5.6L164.9,482.2z"/>
</g>
<g id="Layer_5">
	<path class="st2" d="M1245.6,537c-9.8-12.3-21.3-23-34.2-31.9l-35.7-24.7c-11.2-7.7-23.8-12.9-37-15.4l-2.4-15.9l-0.3-1.8l11.9,2.2
		l14.2,0.9l-1.2-1.8l1.2,0.1l-13.9-22.3l10.2,1.9l-1.3-2l1.3,0.2l-12.5-20l9,0.6l-1.2-1.8l1.2,0.1l-28.3-45.3l-28.3,45.3l1.3-0.2
		l-1.3,2l9.7-1.8l-13.3,21.3l1.2-0.1l-1.2,1.8l9.4-0.6l-13.1,20.9l1.3-0.2l-1.3,2l14.2-2.7l10.1,2.5l-0.3,1.7l-1.8,11.8
		c-22.4,1.9-43.5,11.6-59.5,27.6c-20.4,20.4-45.6,45.6-53.4,53.4c-8.2,8.2-31.4,6.7-53,4.1l-2.7-18.1l-0.3-1.8l11.9,2.2l14.2,0.9
		l-1.2-1.8l1.2,0.1L956.6,508l10.2,1.9l-1.3-2l1.3,0.2l-12.5-20l9,0.6l-1.2-1.8l1.2,0.1L935,441.7L906.7,487l1.3-0.2l-1.3,2l9.7-1.8
		l-13.3,21.3l1.2-0.1l-1.2,1.8l9.4-0.6l-13.1,20.9l1.3-0.2l-1.3,2l14.2-2.7l10.1,2.5l-0.3,1.7l-1.8,12c-4.6-0.5-8.5-0.9-11.6-0.9
		c-19.5,0-77.6-20-97.6,0c-5.7,5.7-17.9,8.8-32.7,10.1l-2.7-17.7l-0.3-1.8l11.9,2.2l14.2,0.9l-1.2-1.8l1.2,0.1l-13.9-22.3l10.2,1.9
		l-1.3-2l1.3,0.2l-12.5-20l9,0.6l-1.2-1.8l1.2,0.1l-28.3-45.3l-28.3,45.3l1.3-0.2l-1.3,2l9.7-1.8l-13.3,21.3l1.2-0.1l-1.2,1.8
		l9.4-0.6l-13.1,20.9l1.3-0.2l-1.3,2l14.2-2.7l10.1,2.5l-0.3,1.7l-2.3,15.6c-32.3-0.7-65.9-6.4-70.4-10.9c-3.2-3.2-14-7.1-27.2-9.4
		l-2.8-18.7l-0.3-1.8l11.9,2.2l14.2,0.9l-1.2-1.8l1.2,0.1l-13.9-22.3l10.2,1.9l-1.3-2l1.3,0.2l-12.5-20l9,0.6l-1.2-1.8l1.2,0.1
		l-28.3-45.3l-28.3,45.3l1.3-0.2l-1.3,2l9.7-1.8l-13.3,21.3l1.2-0.1l-1.2,1.8l9.4-0.6l-13.1,20.9l1.3-0.2l-1.3,2l14.2-2.7l10.1,2.5
		l-0.3,1.7l-2.1,14.1c-12.8,0.6-24.9,3.7-32.3,11.2c-8.2,8.2-16.2,3.7-22.8-4.8c-12.9-16.6-31.5-27.5-51.9-30.5l-2.7-18l-0.3-1.8
		l11.9,2.2l14.2,0.9l-1.2-1.8l1.2,0.1l-13.9-22.3l10.2,1.9l-1.3-2l1.3,0.2l-12.5-20l9,0.6l-1.2-1.8l1.2,0.1l-28.3-45.3l-28.3,45.3
		l1.3-0.2l-1.3,2l9.7-1.8l-13.3,21.3l1.2-0.1l-1.2,1.8l9.4-0.6L475.1,491l1.3-0.2l-1.3,2l14.2-2.7l10.1,2.5l-0.3,1.7l-2,13.4
		c-3.6-0.6-6.3-1.5-7.7-2.9c-8.5-8.5-69.5,6.1-69.5,69.5c0,48.3-70.7,12.4-112.5,0.7l-2.5-16.8l-0.3-1.8l11.9,2.2l14.2,0.9l-1.2-1.8
		l1.2,0.1l-13.9-22.3l10.2,1.9l-1.3-2l1.3,0.2l-12.5-20l9,0.6l-1.2-1.8l1.2,0.1l-28.3-45.3l-28.3,45.3l1.3-0.2l-1.3,2l9.7-1.8
		l-13.3,21.3l1.2-0.1l-1.2,1.8l9.4-0.6l-13.1,20.9l1.3-0.2l-1.3,2l14.2-2.7l10.1,2.5l-0.3,1.7l-1.8,11.8c-0.9,0.4-1.6,0.9-2.3,1.5
		c-18.3,18.3-40.2-40.2-52.4-52.4c-0.5-0.5-1.2-1-1.9-1.4l-2.6-17.3l-0.3-1.8l11.9,2.2l14.2,0.9l-1.2-1.8l1.2,0.1l-13.9-22.3
		l10.2,1.9l-1.3-2l1.3,0.2l-12.5-20l9,0.6l-1.2-1.8l1.2,0.1l-28.3-45.3l-28.3,45.3l1.3-0.2l-1.3,2l9.7-1.8l-13.3,21.3l1.2-0.1
		l-1.2,1.8l9.4-0.6l-13.1,20.9l1.3-0.2l-1.3,2l14.2-2.7l10.1,2.5l-0.3,1.7l-1.6,10.4c-9.2,0.1-19.4,0.9-28.2,2
		c-15,1.7-29,8.5-39.6,19.2l0,0c-2.3,2.3-4.7,4.6-7.2,6.7l-9.1-14.6l10.2,1.9l-1.3-2l1.3,0.2l-12.5-20l9,0.6l-1.2-1.8l1.2,0.1
		l-28.3-45.3l-28.3,45.3l1.3-0.2l-1.3,2l9.7-1.8l-13.3,21.3l1.2-0.1l-1.2,1.8l9.4-0.6L58.7,552l1.3-0.2l-1.3,2l14.2-2.7l10.1,2.5
		l-0.3,1.7l-2,13.4c-11.9,3.7-24.4,5.6-37,5.6H0V720h1280V576C1266.8,562.8,1254.4,548.1,1245.6,537z M103.9,552.5l-0.3-1.8l10.5,2
		c-3,2.1-6.1,4-9.3,5.8L103.9,552.5z"/>
</g>
</svg>
