<?xml version="1.0" encoding="utf-8"?>
<!-- Generator: Adobe Illustrator 19.2.1, SVG Export Plug-In . SVG Version: 6.00 Build 0)  -->
<svg version="1.1" xmlns="http://www.w3.org/2000/svg" xmlns:xlink="http://www.w3.org/1999/xlink" x="0px" y="0px"
	 viewBox="0 0 1280 720" style="enable-background:new 0 0 1280 720;" xml:space="preserve">
<style type="text/css">
	.st0{fill:url(#SVGID_1_);}
	.st1{fill:url(#SVGID_2_);}
	.st2{fill:url(#SVGID_3_);}
	.st3{opacity:0.54;fill:#DBEBFA;}
</style>
<g id="Layer_7">
	<linearGradient id="SVGID_1_" gradientUnits="userSpaceOnUse" x1="640" y1="720" x2="640" y2="-2.873276e-008">
		<stop  offset="0" style="stop-color:#FFFCFE"/>
		<stop  offset="0.1447" style="stop-color:#EBF2FB"/>
		<stop  offset="0.3487" style="stop-color:#D4E6F8"/>
		<stop  offset="0.5575" style="stop-color:#C4DEF5"/>
		<stop  offset="0.7717" style="stop-color:#B9D9F4"/>
		<stop  offset="1" style="stop-color:#B5D7F3"/>
	</linearGradient>
	<rect class="st0" width="1280" height="720"/>
</g>
<g id="Layer_12">
	<linearGradient id="SVGID_2_" gradientUnits="userSpaceOnUse" x1="640" y1="720" x2="640" y2="384">
		<stop  offset="0" style="stop-color:#EACC74"/>
		<stop  offset="0.2082" style="stop-color:#EAD189"/>
		<stop  offset="0.4614" style="stop-color:#EAD69A"/>
		<stop  offset="0.7221" style="stop-color:#EAD9A4"/>
		<stop  offset="1" style="stop-color:#EAD9A7"/>
	</linearGradient>
	<path class="st1" d="M1280,595.7V720H0V595.7c0,0,256.9-18.2,384-104.2S557.4,385.2,640,384c82.6,1.2,128.9,21.5,256,107.5
		S1280,595.7,1280,595.7z"/>
</g>
<g id="Layer_6">
	<linearGradient id="SVGID_3_" gradientUnits="userSpaceOnUse" x1="640" y1="720" x2="640" y2="448">
		<stop  offset="0" style="stop-color:#D6B152"/>
		<stop  offset="0.1135" style="stop-color:#DBB75C"/>
		<stop  offset="0.397" style="stop-color:#E5C470"/>
		<stop  offset="0.6889" style="stop-color:#EBCB7C"/>
		<stop  offset="1" style="stop-color:#EDCE80"/>
	</linearGradient>
	<path class="st2" d="M1024,551.6c-127.1,82.9-384,100.4-384,100.4s-256.9-17.5-384-100.4C128.9,468.7,82.6,449.1,0,448v272h640h640
		V448C1197.4,449.1,1151.1,468.7,1024,551.6z"/>
</g>
<g id="Layer_5">
	<path class="st3" d="M0,112l324-29.7c39.7-3.4,80.2-2.9,119.5,1.5l308,34.7c52.8,5.9,107.6,4.8,159.3-3.4l119.4-18.8
		c78.2-12.3,162.4-8.5,235.5,10.7l14.3,5.1v8l0,0c-81.7-18.1-174-15.4-255,3.5l-54.7,12.8c-68.7,16-146,18.9-218.3,8L483.5,104
		c-44.4-6.7-91.1-8.2-136.8-4.5L0,120V112z"/>
</g>
</svg>
